<?xml version="1.0" encoding="utf-8"?>
<!-- Generator: Adobe Illustrator 25.0.1, SVG Export Plug-In . SVG Version: 6.00 Build 0)  -->
<svg version="1.1" id="Capa_1" xmlns="http://www.w3.org/2000/svg" xmlns:xlink="http://www.w3.org/1999/xlink" x="0px" y="0px"
	 viewBox="0 0 800 800" style="enable-background:new 0 0 800 800;" xml:space="preserve">
<style type="text/css">
	.st0{fill:#F9D28B;}
	.st1{fill:#E9EDEB;}
</style>
<g>
	<path class="st0" d="M131.62,689.17c-2.91,0-5.52-1.74-6.65-4.42c-1.13-2.69-0.54-5.77,1.5-7.84c9.69-9.96,19.4-19.93,29.12-29.9
		l6.86-7.04c7.71-7.92,15.43-15.83,23.15-23.74c8.57-8.78,17.15-17.55,25.73-26.32l12.75-13.03c8.39-8.58,16.78-17.15,25.17-25.72
		c8.71-8.89,17.43-17.77,26.15-26.65c10.3-10.48,20.59-20.95,30.91-31.41c8.42-8.54,16.84-17.07,25.28-25.59
		c9.41-9.49,18.84-18.97,28.28-28.43c6.8-6.81,12.06-12.05,17.06-16.98c7.38-7.28,13.06-12.83,18.44-18.01
		c1.32-1.27,2.66-2.5,3.99-3.71c-1.34-1.24-2.65-2.49-3.93-3.73l-0.56-0.54c-9.79-9.37-19.52-19.07-28.92-28.45l-2.89-2.88
		c-5.59-5.57-11.15-11.17-16.72-16.76l-4.15-4.17c-4.43-4.45-8.85-8.91-13.26-13.38c-7.97-8.07-15.94-16.14-23.9-24.22l-2.64-2.68
		c-4.34-4.4-8.67-8.79-13-13.19c-5.01-5.1-25.45-25.91-25.45-25.91c-4.1-4.17-8.2-8.34-12.29-12.52
		c-4.56-4.65-21.3-21.76-21.3-21.76l-8.05-8.22c-5.1-5.2-10.19-10.41-15.28-15.62c-5.7-5.83-11.4-11.67-17.09-17.51l-14.77-15.13
		c-5.2-5.32-10.4-10.64-15.59-15.97c-9.08-9.31-18.15-18.63-27.22-27.95c-1.59-1.64-3.17-3.28-4.76-4.93l-1.13-1.17
		c-2.01-2.09-2.57-5.15-1.44-7.81c1.13-2.66,3.73-4.38,6.63-4.38h286.02c1.92,0,3.73,0.75,5.09,2.11l2.29,2.28l279.16,279.21
		c1.22,1.22,1.9,2.87,1.9,4.6l0,1.3c0,1.73-0.69,3.38-1.91,4.6l-1.65,1.64L424.3,685.53c0,0-0.47,0.46-0.53,0.52
		c-1.34,1.95-3.54,3.12-5.93,3.12H131.62z"/>
	<path class="st1" d="M417.69,118c0.19,0,0.36,0.07,0.5,0.2c0.76,0.76,1.52,1.52,2.29,2.28c91.46,91.47,182.92,182.94,274.38,274.41
		c1.6,1.6,3.19,3.19,4.79,4.79c0,0.51,0,0.79,0,1.3c-0.55,0.55-1.1,1.1-1.65,1.65c-92.76,92.77-185.51,185.54-278.27,278.3
		c-0.36,0.36-0.74,0.71-1.07,1.09c-0.07,0.07-0.12,0.16-0.16,0.25c-0.12,0.24-0.36,0.4-0.63,0.4H131.63c-0.63,0-0.95-0.76-0.51-1.21
		c9.71-9.98,19.42-19.95,29.14-29.92c10-10.26,20-20.53,30.01-30.78c10.72-10.98,21.46-21.95,32.19-32.92
		c10.48-10.72,20.96-21.44,31.45-32.15c8.71-8.89,17.42-17.77,26.14-26.64c10.29-10.47,20.59-20.95,30.9-31.41
		c8.41-8.54,16.83-17.06,25.27-25.57c9.41-9.49,18.83-18.96,28.27-28.42c5.65-5.67,11.32-11.32,17.02-16.95
		c6.1-6.01,12.22-12.01,18.39-17.96c2.79-2.69,5.72-5.23,8.59-7.83c0.21-0.19,0.43-0.39,0.63-0.57c-0.07-0.12-0.08-0.17-0.12-0.2
		c-3.37-2.74-6.48-5.75-9.61-8.75c-10.72-10.26-21.21-20.76-31.72-31.24c-6.97-6.95-13.9-13.94-20.84-20.91
		c-4.42-4.45-8.84-8.9-13.25-13.36c-8.85-8.96-17.7-17.93-26.54-26.89c-4.33-4.39-8.67-8.79-12.99-13.19
		c-6.97-7.09-13.94-14.19-20.9-21.28c-5.61-5.71-11.22-11.42-16.83-17.14c-7.1-7.25-14.2-14.5-21.29-21.76
		c-7.78-7.94-15.56-15.88-23.33-23.83c-8.38-8.57-16.74-17.15-25.11-25.72c-7.44-7.63-14.89-15.25-22.33-22.88
		c-9.08-9.31-18.15-18.63-27.22-27.95c-1.96-2.02-3.91-4.05-5.86-6.08c-0.43-0.45-0.11-1.19,0.51-1.19
		C227,118,322.34,118,417.69,118 M417.69,105H131.66c-5.5,0-10.45,3.27-12.61,8.34c-2.15,5.06-1.08,10.9,2.74,14.87l1.03,1.07
		c1.63,1.69,3.25,3.38,4.89,5.06c9.07,9.32,18.14,18.64,27.22,27.96c5.11,5.24,10.22,10.47,15.33,15.71l7.01,7.18l7.83,8.02
		c5.76,5.9,11.52,11.81,17.29,17.71c5.17,5.29,10.35,10.58,15.53,15.87l7.8,7.97l7.2,7.36c4.7,4.8,9.39,9.6,14.1,14.4
		c4.01,4.09,8.02,8.18,12.04,12.26l4.8,4.89l5.48,5.59c5.14,5.23,10.28,10.47,15.42,15.7c4.33,4.41,8.67,8.8,13.01,13.2l1.55,1.57
		c8.33,8.44,16.66,16.89,25,25.33c4.42,4.47,8.85,8.94,13.28,13.4l4.17,4.19c5.47,5.5,11.12,11.18,16.71,16.76l2.94,2.93
		c9.26,9.23,18.83,18.78,28.48,28.03c-5.09,4.91-10.54,10.24-17.52,17.12c-4.99,4.92-10.43,10.33-17.1,17.02
		c-10.15,10.18-19.4,19.48-28.29,28.44c-9.24,9.32-18.37,18.58-25.3,25.6c-10.31,10.46-20.61,20.94-30.91,31.42
		c-8.73,8.88-17.45,17.76-26.16,26.66c-8.61,8.78-17.2,17.58-25.8,26.37l-5.66,5.79l-6.78,6.93c-8.47,8.66-16.95,17.33-25.42,26
		c-7.81,8-15.61,16-23.41,24.01l-6.61,6.78c-9.71,9.96-19.42,19.93-29.12,29.9c-3.87,3.95-4.99,9.8-2.85,14.9
		c2.14,5.11,7.11,8.41,12.64,8.41h286.21c4.32,0,8.3-2,10.87-5.35c0.06-0.06,0.13-0.13,0.19-0.19l278.27-278.3l1.43-1.43l0.2-0.2
		c2.45-2.44,3.82-5.74,3.83-9.2l0-0.65l0-0.65c0-3.45-1.36-6.76-3.8-9.2l-1.22-1.22l-3.57-3.57L429.66,111.29l-1.76-1.75l-0.54-0.54
		C424.77,106.42,421.34,105,417.69,105L417.69,105z"/>
</g>
</svg>
